<?xml version="1.0" encoding="UTF-8"?>
<svg id="Layer_1" xmlns="http://www.w3.org/2000/svg" version="1.1" viewBox="0 0 148 71">
  <!-- Generator: Adobe Illustrator 29.7.1, SVG Export Plug-In . SVG Version: 2.1.1 Build 8)  -->
  <path d="M18.2,34.6c-.05-1.91.18-3.07.7-3.49s1.14-.68,1.89-.78l.28-.04c1.29-.18,2.07.02,2.34.59.2.41.33.85.39,1.33.03.19.04.38.04.57,2.59-.19,4.47.64,5.64,2.5.28.63.45,1.18.51,1.65-.03,2.21-.96,3.45-2.79,3.7-1.76-.25-2.72-.94-2.87-2.06l-.7.1c-2.45.34-4.01,1.56-4.67,3.66,6.49-.09,10.39.48,11.73,1.7,1.55.82,2.41,1.85,2.58,3.09l.12.85c.42,3.07-1.81,5.58-6.69,7.52l.03.25c.27,1.98-.31,3.12-1.74,3.41-.31.07-.6.12-.85.15-1.02.14-1.69.07-2.02-.2-.43-.34-.71-.71-.84-1.1-.11-.3-.18-.59-.22-.88-.01-.09-.02-.18-.02-.27l-.5.07c-2.29.06-3.56-.77-3.79-2.5.06-1.92.83-2.98,2.29-3.18l3.11-.43c1.98-.27,3.67-.94,5.05-1.99-.08-.56-3.03-.78-8.86-.65-3.05-.57-4.74-2.07-5.08-4.48l-.06-.42c-.35-2.57.92-5.19,3.81-7.85.39-.3.8-.57,1.21-.82Z"/>
  <path d="M40.94,29.54l1.27-.17c2.91-.4,4.74-.41,5.49-.03.8.41,1.25,1.06,1.38,1.95l.08.57c.17,1.23-.61,2.15-2.34,2.76l-.15.02c-1.6.22-3.44.43-5.52.62-2.14.45-3.26.88-3.36,1.29-.06.25-.08.52-.04.81.03.2.08.42.16.64.18.55,2.48.52,6.9-.09,1.47-.2,2.49.62,3.07,2.46-.06,1.92-.87,2.99-2.43,3.2l-5.65.78.02.15c.99,2.99,1.55,5.01,1.7,6.09-.23,2.04-1.08,3.17-2.56,3.37l-.15.02c-1.19.16-2.17-.42-2.96-1.75-.14-.99-1.21-4.96-3.23-11.91l-.23-1.69c-.47-3.43.49-5.87,2.88-7.31,1.51-.87,3.39-1.46,5.66-1.78Z"/>
  <path d="M53.29,29.14c1.57-.22,2.65.64,3.24,2.57.05,5.23.26,9.23.64,11.99.19.66.29,1.02.3,1.1.25-.03,2.02-.75,5.31-2.16l.28-.04c1.2-.17,2.14.38,2.81,1.62.15.35.25.72.3,1.1.27,1.94-2.46,3.71-8.19,5.3l-.28.04c-2.39.33-4.21-.67-5.44-3-.32-.91-.54-1.74-.64-2.5l-.02-.13c-1.06-8.54-1.33-13.29-.81-14.27.49-.93,1.28-1.47,2.39-1.62l.12-.02Z"/>
  <path d="M76.59,26.07c3.25-.45,6.33,1.38,9.26,5.49.65,1.23,1.07,2.47,1.24,3.71l.08.57c.44,3.18-.74,6.12-3.54,8.82-1.77,1.49-3.75,2.39-5.95,2.69l-.99.14c-4.19.58-7.44-.8-9.76-4.12-.52-.97-.91-2.07-1.18-3.29-.53-3.85.33-7.03,2.59-9.55s5.01-4.01,8.26-4.46ZM78.06,32.14c-.63-.13-1.24-.15-1.81-.07-1.18.16-2.22.75-3.13,1.76-1.35,1.5-1.89,3.27-1.61,5.31l.06.42c.21,1.56,1.61,2.33,4.2,2.29l1.27-.17c3.33-.9,4.8-2.73,4.42-5.49-.32-2.33-1.45-3.68-3.39-4.06Z"/>
  <path d="M95.29,22.36c4.25-.58,7.5,1.08,9.74,4.99.29.67.48,1.32.56,1.93.39,2.85-.83,5.47-3.67,7.83,2.38.93,3.72,1.66,4.03,2.18.28.68.43,1.09.45,1.23.2,1.47-.62,2.49-2.45,3.06-1.61.22-4.32-1.03-8.13-3.76l-.31-.11c.23.92.37,1.62.44,2.1.32,2.33-.53,3.79-2.56,4.38-1.59.22-2.66-.6-3.21-2.44-.06-.44-.08-.92-.05-1.42-.69-2.9-1.4-6.31-2.13-10.2-.59-4.26.33-7.03,2.74-8.29,1.62-.8,3.13-1.29,4.54-1.49ZM93.8,30.98s0,.06,0,.09c.22,1.59,1.12,2.27,2.7,2.06s2.5-1.09,2.72-2.6c.04-.26.04-.5.01-.72-.14-1.02-1.04-1.5-2.71-1.43-.2.01-.4.03-.58.06-1.6.22-2.32,1.07-2.14,2.55Z"/>
  <path d="M108.56,21.25c2.39-.28,3.73.58,4,2.59.03.22.05.45.06.71,0,.61.04,1.12.1,1.53.14.99.4,1.46.8,1.41.13-.02.27-.1.44-.23.85-.7,1.98-2.24,3.38-4.62,1.4-2.37,2.87-3.66,4.42-3.87h.01c1.55-.21,2.55.6,2.99,2.42l.02.16c.26,1.88-2.48,5.61-8.21,11.18,1.98,1.29,4.08,2.31,6.3,3.08s3.47,1.86,3.77,3.3c-.06,1.92-.97,3-2.71,3.24-.99.14-4.51-1.44-10.57-4.72.11,2.39,0,4.07-.32,5.05-.27.83-.9,1.32-1.88,1.45-.16.02-.33.04-.5.04-1.47.2-2.49-.61-3.07-2.45.06-5.16-.14-9.44-.61-12.85l-.52-3.81c-.25-1.85.44-3.05,2.09-3.6Z"/>
</svg>