<?xml version="1.0" encoding="UTF-8"?>
<svg id="Layer_1" xmlns="http://www.w3.org/2000/svg" version="1.1" viewBox="0 0 59 243">
  <!-- Generator: Adobe Illustrator 29.7.1, SVG Export Plug-In . SVG Version: 2.1.1 Build 8)  -->
  <path d="M28.67,122.61l10.89,59.32-1.37,1.53-14.79,1.44-.98.5c.26.27.44.61.48.98,1.48,12.56,4.37,25.3,6,37.88.31,2.41,1.77,7.29-1.91,7.02l-1.19-.99-7.71-47.11c.04-.65.18-1.24.72-1.68,1.84-1.5,13.03-1.38,15.95-1.92l-10.09-59.81c.65-1.37,2-1.48,3.28-1.83,6.57-1.8,14.35-2.3,21.06-3.96l-13.87-73.28c.2-4.07,6.93-1.87,9.52-3.62l-16.37-20.63-11.71,24.31c.47.7.82.28,1.32.25,2.79-.14,8.82-2.86,10.22.39l11.57,62.91c-.03.45.04,1.09-.17,1.46-.83,1.48-21.19,3.45-23.97,5.19l10.16,58.63-.3,1.76-1.01.58-14.51,1.52,8.34,54.95c-.97,2.06-3.12,1.48-3.98-.36l-8.88-56.36,1.66-2.13c3.92-.43,8-.61,11.88-1.31.66-.12,2.14-.24,2.3-.97l-10.06-58.95,1.83-1.61,22.64-4.34-11.35-57.85c-.69-1.02-9.55,1.85-11.04,1.58-1-.18-2.01-.89-2.21-1.96L26.35,11.18c.88-.72,2.39-.41,3.19.37,6.18,8.35,13.81,16.35,19.71,24.83,4.37,6.28-4.77,4.85-8.53,5.73-.43.1-.9-.04-.85.65l13.65,73.01-1.66,2.13-23.19,4.72Z"/>
</svg>