<?xml version="1.0" encoding="UTF-8"?>
<svg id="Layer_1" xmlns="http://www.w3.org/2000/svg" version="1.1" viewBox="0 0 75 747">
  <!-- Generator: Adobe Illustrator 29.7.1, SVG Export Plug-In . SVG Version: 2.1.1 Build 8)  -->
  <path d="M36.38,293.83l14.92,81.29-1.87,2.1-20.27,1.98-1.35.69c.36.37.6.83.66,1.34,2.02,17.21,5.99,34.68,8.22,51.91.43,3.31,2.42,9.99-2.62,9.62l-1.64-1.36-10.56-64.57c.06-.9.25-1.7.99-2.31,2.53-2.05,17.85-1.89,21.86-2.64l-13.82-81.96c.89-1.88,2.74-2.02,4.5-2.5,9-2.47,19.67-3.15,28.86-5.43l-19.01-100.43c.28-5.58,9.49-2.56,13.05-4.96l-22.43-28.27-16.04,33.32c.64.96,1.13.38,1.82.34,3.82-.19,12.08-3.92,14.01.53l15.86,86.23c-.04.61.05,1.49-.24,2-1.14,2.03-29.04,4.72-32.85,7.12l13.93,80.35-.42,2.41-1.39.79-19.88,2.08,11.43,75.3c-1.32,2.82-4.28,2.02-5.46-.5l-12.17-77.24,2.27-2.92c5.38-.6,10.96-.84,16.28-1.79.9-.16,2.93-.33,3.16-1.33l-13.79-80.79,2.51-2.2,31.02-5.94-15.55-79.28c-.95-1.4-13.08,2.53-15.13,2.16-1.37-.25-2.75-1.22-3.03-2.68l20.99-45.19c1.21-.99,3.27-.56,4.37.51,8.47,11.44,18.93,22.41,27.02,34.03,5.99,8.61-6.54,6.65-11.69,7.85-.58.14-1.23-.06-1.17.89l18.7,100.06-2.27,2.92-31.78,6.46Z"/>
</svg>