<?xml version="1.0" encoding="UTF-8"?>
<svg id="Layer_1" xmlns="http://www.w3.org/2000/svg" version="1.1" viewBox="0 0 529 283">
  <!-- Generator: Adobe Illustrator 29.7.1, SVG Export Plug-In . SVG Version: 2.1.1 Build 8)  -->
  <path d="M110.54,16.13c11.58,0,18.52,10.08,20.82,30.25,2.42,23.23,3.62,40.75,3.62,52.56,0,8.78-.67,14.38-2.01,16.79-2.53,4.6-6.35,6.9-11.44,6.9-1.19,0-2.45-.13-3.8-.4-6.44-1.19-9.66-5.54-9.66-13.05,0-.65.02-1.32.06-2.01-.77-20.43-1.59-34.52-2.47-42.27-.5-3.99-1.25-5.98-2.24-5.98-.92,0-2.09,1.75-3.51,5.23-2.91,7.25-7.19,13.84-12.82,19.78-3.6,2.68-7.63,4.03-12.08,4.03-8.21,0-16.26-8.05-24.15-24.15-.23-.5-.5-.75-.81-.75-.96,0-2.17,2.68-3.62,8.05-1.92,6.98-2.88,17.52-2.88,31.63v1.78c0,14.15-4.7,21.7-14.09,22.66-.54.08-1.07.11-1.61.11-8.36,0-12.54-7.28-12.54-21.85v-.4c.08-15.76,1.43-31.5,4.05-47.24,2.63-15.74,5.43-26.06,8.42-30.97,2.99-4.91,7.32-7.8,13-8.68h2.65c7.51.54,14.32,6.42,20.42,17.66,6.1,11.23,9.87,16.85,11.33,16.85l.06-.06c1.46,0,4.91-5.94,10.35-17.83,5.44-11.88,13.76-18.1,24.96-18.63Z"/>
  <path d="M201.75,16.82c12.54.34,18.81,4.37,18.81,12.08,0,.54-.02,1.07-.06,1.61-.96,8.78-4.08,13.17-9.37,13.17h-7.36c-21.47,0-32.2,1.78-32.2,5.35-.12.61-.17,1.19-.17,1.73,0,3.37,2.17,5.06,6.5,5.06.46,0,.96-.02,1.5-.06,6.1-.46,11.31-.69,15.64-.69,7.48,0,11.96,4.7,13.46,14.09,0,8.97-6.5,13.46-19.5,13.46-4.33,0-8.99.29-13.97.86-4.41.5-6.61,2.65-6.61,6.44,0,.5.06,1.04.17,1.61.5,3.6,3.99,5.41,10.47,5.41,2.15,0,4.6-.19,7.36-.58,11.23-1.57,18.81-2.36,22.72-2.36,7.4.15,11.42,4.85,12.08,14.09-1.34,8.93-7.15,13.4-17.42,13.4-11.54,1.34-24.73,3.14-39.56,5.41-11.2,0-18.36-8.05-21.51-24.15-1.34-7.17-2.01-14.34-2.01-21.51,0-34.01,7.17-54.13,21.51-60.38,7.51-2.68,20.7-4.03,39.56-4.03Z"/>
  <path d="M285.43,16.82c12.54.34,18.8,4.37,18.8,12.08,0,.54-.02,1.07-.06,1.61-.96,8.78-4.08,13.17-9.37,13.17h-7.36c-21.47,0-32.2,1.78-32.2,5.35-.12.61-.17,1.19-.17,1.73,0,3.37,2.17,5.06,6.5,5.06.46,0,.96-.02,1.5-.06,6.1-.46,11.31-.69,15.64-.69,7.47,0,11.96,4.7,13.46,14.09,0,8.97-6.5,13.46-19.49,13.46-4.33,0-8.99.29-13.97.86-4.41.5-6.61,2.65-6.61,6.44,0,.5.06,1.04.17,1.61.5,3.6,3.99,5.41,10.47,5.41,2.15,0,4.6-.19,7.36-.58,11.23-1.57,18.8-2.36,22.71-2.36,7.4.15,11.43,4.85,12.08,14.09-1.34,8.93-7.15,13.4-17.43,13.4-11.54,1.34-24.73,3.14-39.56,5.41-11.2,0-18.37-8.05-21.51-24.15-1.34-7.17-2.01-14.34-2.01-21.51,0-34.01,7.17-54.13,21.51-60.38,7.51-2.68,20.7-4.03,39.57-4.03Z"/>
  <path d="M373.58,18.14c16.52,0,24.79,5.16,24.79,15.47-1.61,9.39-6.08,14.09-13.4,14.09-7.09-1.34-11.35-2.01-12.77-2.01h-2.65c2.22,22.85,3.34,44.09,3.34,63.72-1.19,8.17-5.85,12.33-13.97,12.48-.15.04-.29.06-.4.06-7.9,0-12.5-4.85-13.8-14.55-.46-35.12-1.36-55.25-2.7-60.38-10.66,2.26-16.91,3.39-18.75,3.39-7.9,0-12.38-4.72-13.46-14.15,0-8.89,8.51-14.03,25.53-15.41,12-1.8,24.75-2.7,38.24-2.7Z"/>
  <path d="M54.91,154.82h6.04c13.84,0,22.39,1.13,25.65,3.39,3.45,2.42,5.18,5.75,5.18,10.01v2.7c0,5.87-4.24,9.66-12.71,11.39h-.69c-7.59,0-16.31-.21-26.17-.63-10.27.73-15.78,2.01-16.5,3.85-.46,1.11-.69,2.36-.69,3.74,0,.96.12,1.99.35,3.11.5,2.68,11.25,4.03,32.26,4.03,6.98,0,11.23,4.49,12.77,13.46-1.53,8.93-6,13.4-13.4,13.4h-26.86v.69c2.68,14.57,4.03,24.4,4.03,29.5-2.38,9.39-7.07,14.09-14.09,14.09h-.69c-5.64,0-9.87-3.36-12.71-10.06,0-4.71-2.47-23.94-7.42-57.68v-8.05c0-16.33,6.04-27.09,18.11-32.26,7.59-3.11,16.77-4.66,27.55-4.66Z"/>
  <path d="M112.82,160.86c7.48,0,11.96,4.7,13.46,14.09-3.14,24.46-4.72,43.25-4.72,56.36.46,3.18.69,4.96.69,5.35,1.19,0,9.91-2.22,26.17-6.67h1.32c5.71,0,9.74,3.12,12.08,9.37.46,1.72.69,3.51.69,5.35,0,9.24-13.88,15.74-41.64,19.5h-1.32c-11.39,0-19.21-5.83-23.46-17.48-.92-4.45-1.38-8.47-1.38-12.08v-.63c.54-40.52,2.32-62.89,5.35-67.11,2.88-4.03,6.94-6.04,12.19-6.04h.58Z"/>
  <path d="M223.52,161.49c15.45,0,28.68,10.52,39.68,31.57,2.26,6.17,3.39,12.21,3.39,18.12v2.7c0,15.14-7.4,28.1-22.2,38.88-9.2,5.83-19.04,8.74-29.5,8.74h-4.72c-19.94,0-34.24-8.49-42.9-25.48-1.8-4.87-2.93-10.24-3.39-16.1,0-18.29,6.07-32.6,18.2-42.93,12.13-10.33,25.94-15.5,41.43-15.5ZM226.51,190.76c-2.88-1-5.67-1.5-8.4-1.5-5.6,0-10.85,2.07-15.76,6.21-7.28,6.13-10.93,14.05-10.93,23.75v2.01c0,7.44,6.04,11.9,18.11,13.4h6.04c16.1-2.07,24.15-9.66,24.15-22.77,0-11.08-4.41-18.11-13.23-21.1Z"/>
  <path d="M313.17,156.14c20.2,0,34.29,9.85,42.27,29.56.92,3.33,1.38,6.46,1.38,9.37,0,13.57-7.38,24.98-22.14,34.22,10.5,5.87,16.31,10.12,17.42,12.77.88,3.33,1.32,5.35,1.32,6.04,0,6.98-4.47,11.21-13.4,12.71-7.67,0-19.51-7.59-35.54-22.77l-1.38-.69c.46,4.45.69,7.8.69,10.06,0,11.08-4.93,17.35-14.78,18.8-7.55,0-12.02-4.49-13.4-13.46,0-2.11.23-4.33.69-6.67-1.34-13.99-2.47-30.33-3.39-49,0-20.28,6.04-32.59,18.11-36.92,8.05-2.68,15.43-4.03,22.14-4.03ZM300.69,195.42c-.04.15-.06.29-.06.4,0,7.55,3.76,11.33,11.27,11.33s12.38-3.47,14.38-10.41c.34-1.19.52-2.3.52-3.33,0-4.87-3.91-7.67-11.73-8.4-.96-.08-1.88-.12-2.76-.12-7.63,0-11.5,3.51-11.62,10.52Z"/>
  <path d="M375.86,159.48c11.35.23,17.02,5.12,17.02,14.66,0,1.04-.06,2.15-.17,3.34-.35,2.84-.52,5.23-.52,7.19,0,4.71.94,7.07,2.82,7.07.61,0,1.34-.27,2.19-.81,4.41-2.72,10.66-9.18,18.75-19.38,8.05-10.16,15.76-15.24,23.12-15.24h.06c7.36.04,11.5,4.45,12.42,13.23v.75c0,8.93-15.16,24.58-45.49,46.93,8.43,7.28,17.58,13.42,27.43,18.4,9.85,4.98,15.01,10.93,15.47,17.83-1.53,8.93-6.44,13.4-14.72,13.4-4.72,0-20.15-9.6-46.29-28.81-1.04,11.23-2.61,19.02-4.72,23.35-1.8,3.72-5.04,5.58-9.72,5.58-.77,0-1.55-.04-2.36-.12-6.98,0-11.23-4.47-12.77-13.4,3.6-24.04,5.41-44.17,5.41-60.38v-18.11c0-8.78,4.03-13.94,12.08-15.47Z"/>
</svg>