<?xml version="1.0" encoding="UTF-8"?>
<svg id="Layer_1" xmlns="http://www.w3.org/2000/svg" version="1.1" viewBox="0 0 1112 914">
  <!-- Generator: Adobe Illustrator 29.7.1, SVG Export Plug-In . SVG Version: 2.1.1 Build 8)  -->
  <path d="M154.71,262.54c-8.84,8.83-11.97-14.42-13.95-19.02-2.57-5.95-8.52-13.1-13.65-17.03-4.21-3.22-8.31-3.93-11.85-6.33-11.07-7.5,5.99-12.95,11.21-17.09,6.27-4.97,11.13-11.31,14.28-18.68,2.32-5.42,4.47-22.01,10.23-22.25,7.82-.33,7.01,13.05,8.86,19.11,2.61,8.51,8.58,16.53,15.66,21.84,4.73,3.54,20.26,7.77,13.05,15.48-1.86,1.98-9.62,4.84-13.02,7.42-6.37,4.83-12.35,12.42-15.42,19.81-1.44,3.48-3.93,15.27-5.41,16.74ZM173.16,215.08c-9.59-7.21-17.82-14.56-22.16-26.13-4.32,10.63-11.16,19.52-21,25.58,9.28,6.38,17.6,14.54,21,25.58,4.47-10.22,11.7-20.41,22.16-25.02Z"/>
  <path d="M941.74,704.62c32.54,5.49,31.77,47.33-1.01,51.01-.15,5.58,2.78,17.53-5.49,17.1-7.12-.37-3.62-12.27-4.62-16.97-7.86-1.94-15.59-5.31-20.07-12.44-2.54-4.05-6.68-13.52-.78-16.2,6.63-3.01,6.58,5.8,7.9,9.08,2.11,5.26,8.17,6.96,13.07,8.42l.48-32.04c-9.53-3.7-18.78-5.61-22.52-16.41-5.98-17.26,5.17-32.81,22.62-35.48,1.12-3.93-1.15-13.29,4.13-14.9,8.64-2.64,5.92,11.14,6.35,15.79,9.47-.39,20.62,10.92,21.78,19.81.72,5.56-4.82,10.49-8.68,4.59-3.57-5.44-3.77-13.28-13.14-14.36v33ZM931.74,671.62c-18.81,2.23-19.47,27.69,0,30v-30ZM941.74,745.62c19.13-3.84,18.36-26.17,0-30v30Z"/>
  <path d="M410.99,681.23c-2.62-.64-5.08-3.6-3.72-6.25,2.46-3.73,7.25-3.28,10.61-6.18,17.97-15.53.07-46.97,8.18-66.04,3.85-9.06,9.31-12.32,19.05-12.09,3.24.07,11.61,3.22,12.94-.2-1.26-25.18-19.33-67.47,9.78-83.52,17.54-9.67,38.28,9.22,53.34,16.1,30.26,13.83,16.02-14.04,29.09-25.93,17.38-15.81,45.28,12.86,58.25-5.44,14.82-20.9-18.36-83.77,19.73-94.53,13.73-3.88,25.15,6.11,37.09,10.06,3.83,1.27,9.8,3.67,12.28-.85,3.52-6.4-2.46-37.51-2.75-46.94-.13-4.05-1.29-6.44,3.27-8.51s30.25,6.36,36.81,7.48l2.6-.71-14.41-71.92c-7.53-.36-20.71,8.96-23.3-2.12l9.74-44.29c1.24-3.5,5.07-5.18,8.17-3.2,9.49,10.99,23.32,21.21,32.29,32.24,12.22,15.03-8.06,10.66-15.12,14.41-1.05.56-1.77.99-1.72,2.32,1.22,9.65,16.83,80.39,14.24,83.75-2.01,2.62-5.62,1.32-8.47.84-4.46-.75-32.25-9.19-33.82-8.01-.23,12.51,7.46,39.4.81,50.17-15.75,25.54-63.46-33.49-66.87,13.46-1.49,20.56,11.38,65.7-9.18,78.69-15.25,9.63-28.49-.79-42.59-2.22-23.15-2.34-5.76,31.09-29.68,35.36-17.45,3.11-35.93-18.04-53.15-22.08-7.94-1.86-11.81-1-17.85,5.13-11.94,12.11-.02,49.34,1.12,64.54.35,4.67.36,11.89-3.39,15.28-10.31,9.3-27.87-11.95-30.49,13.2-1.94,18.63,8.73,36.64-2.95,54.62-3.47,5.34-13.03,15.04-19.91,13.37ZM718.48,271.29l-21.4-21.49-6.27,29.44,27.67-7.95Z"/>
  <path d="M134.53,791.4l-14-1v-95.5c0-5.1,10.67-3.25,14.01-3.49,1.29-1.29-.99-31.07.02-36.48.95-5.04,9.09-5.92,9.99,1.95.95,8.3.23,21.32.05,30.08-.04,1.76-1.72,5.15.42,5.39.18.02,1.74-.94,2.98-.97,5.38-.13,9.25-.81,10.48,5.57l-.16,90.72c-1.19,5.33-8.94,5.51-13.33,3.94l-1.44,1.33c1.87,10.65-1.78,21.83.8,32.74-.92,6.66-9.81,5.03-9.81,2.21v-36.5ZM149.53,701.4h-20v80c3.81.08,7.66-.13,11.49,0,1.5.05,8.51,2.39,8.51-.51v-79.5Z"/>
  <path d="M919.6,191.15l-14-1v-95.5c0-5.1,10.67-3.25,14.01-3.49,1.29-1.29-.99-31.07.02-36.48.95-5.04,9.09-5.92,9.99,1.95.95,8.3.23,21.32.05,30.08-.04,1.76-1.72,5.15.42,5.39.18.02,1.74-.94,2.98-.97,5.38-.13,9.25-.81,10.48,5.57l-.16,90.72c-1.19,5.33-8.94,5.51-13.33,3.94l-1.44,1.33c1.87,10.65-1.78,21.83.8,32.74-.92,6.66-9.81,5.03-9.81,2.21v-36.5ZM934.6,101.15h-20v80c3.81.08,7.66-.13,11.49,0,1.5.05,8.51,2.39,8.51-.51v-79.5Z"/>
  <path d="M1025.53,747.15c3.03,1.85,4.26,33.48,2.26,38.41-9.43,5.07-7.8-5.51-8.59-11.58-15.79,25.04-36.86,49.6-63.48,63.52-4.39,2.3-21.13,11.58-21.12,1.97,0-4.48,10.23-7.07,13.98-9.11,26.76-14.61,47.23-35.25,62.13-61.87-3.39-1.07-6.67,3.58-9.73,4.29-4.92,1.14-9.63-2.14-6.78-6.8.65-1.07,12.12-7.99,14.41-9.59,3.62-2.52,12.35-12.03,16.92-9.24Z"/>
  <path d="M136.84,105.59c3.85-1.18,6.65.98,6.13,5.07-.98,7.66-14.07,18.72-20.52,22.58-4.48,2.68-24.39,13.1-24.4,2.69,0-4.96,8.49-5.27,12.1-6.99,7.51-3.59,14.41-8.83,20.02-14.98,1.85-2.03,4.72-7.77,6.68-8.36Z"/>
</svg>