<?xml version="1.0" encoding="UTF-8"?>
<svg id="Layer_1" xmlns="http://www.w3.org/2000/svg" version="1.1" viewBox="0 0 906 118">
  <!-- Generator: Adobe Illustrator 29.7.1, SVG Export Plug-In . SVG Version: 2.1.1 Build 8)  -->
  <path d="M103.65,15.48c14.55,0,21.83,4.54,21.83,13.62-1.42,8.27-5.35,12.41-11.8,12.41-6.25-1.18-9.99-1.77-11.24-1.77h-2.33c1.96,20.12,2.94,38.82,2.94,56.11-1.05,7.19-5.15,10.85-12.31,10.99-.14.03-.25.05-.35.05-6.96,0-11.01-4.27-12.15-12.81-.41-30.92-1.2-48.65-2.38-53.17-9.39,1.99-14.89,2.99-16.51,2.99-6.96,0-10.9-4.15-11.85-12.46,0-7.83,7.49-12.36,22.48-13.57,10.57-1.59,21.79-2.38,33.68-2.38Z"/>
  <path d="M172.06,17.25c13.6,0,25.25,9.27,34.94,27.8,1.99,5.44,2.99,10.75,2.99,15.95v2.38c0,13.34-6.52,24.75-19.55,34.23-8.1,5.13-16.76,7.7-25.98,7.7h-4.15c-17.56,0-30.15-7.48-37.78-22.43-1.59-4.29-2.58-9.01-2.99-14.18,0-16.1,5.34-28.7,16.03-37.8,10.69-9.1,22.85-13.65,36.49-13.65ZM174.7,43.02c-2.53-.88-5-1.32-7.39-1.32-4.93,0-9.55,1.82-13.88,5.47-6.41,5.4-9.62,12.37-9.62,20.91v1.77c0,6.55,5.32,10.48,15.95,11.8h5.32c14.18-1.82,21.27-8.51,21.27-20.05,0-9.76-3.88-15.95-11.65-18.58Z"/>
  <path d="M227.77,15.48c9.99.2,14.99,4.51,14.99,12.91,0,.91-.05,1.89-.15,2.94-.3,2.5-.46,4.61-.46,6.33,0,4.15.83,6.23,2.48,6.23.54,0,1.18-.24,1.92-.71,3.88-2.4,9.38-8.08,16.51-17.07,7.09-8.95,13.88-13.42,20.36-13.42h.05c6.48.03,10.13,3.92,10.94,11.65v.66c0,7.87-13.35,21.64-40.06,41.32,7.43,6.42,15.48,11.82,24.16,16.21,8.68,4.39,13.22,9.62,13.62,15.7-1.35,7.87-5.67,11.8-12.96,11.8-4.15,0-17.74-8.46-40.76-25.37-.91,9.89-2.3,16.75-4.15,20.56-1.59,3.27-4.44,4.91-8.56,4.91-.68,0-1.37-.03-2.08-.1-6.15,0-9.89-3.93-11.24-11.8,3.17-21.17,4.76-38.89,4.76-53.17v-15.95c0-7.73,3.54-12.27,10.63-13.62Z"/>
  <path d="M347.78,14.31c11.04.3,16.56,3.85,16.56,10.63,0,.47-.02.95-.05,1.42-.84,7.73-3.6,11.6-8.25,11.6h-6.48c-18.91,0-28.36,1.57-28.36,4.71-.1.54-.15,1.05-.15,1.52,0,2.97,1.91,4.46,5.72,4.46.41,0,.84-.02,1.32-.05,5.37-.41,9.96-.61,13.77-.61,6.58,0,10.53,4.14,11.85,12.41,0,7.9-5.72,11.85-17.17,11.85-3.82,0-7.92.25-12.31.76-3.88.44-5.82,2.33-5.82,5.67,0,.44.05.91.15,1.42.44,3.17,3.51,4.76,9.22,4.76,1.89,0,4.05-.17,6.48-.51,9.89-1.38,16.56-2.08,20-2.08,6.51.14,10.06,4.27,10.63,12.41-1.18,7.87-6.3,11.8-15.34,11.8-10.16,1.18-21.78,2.77-34.84,4.76-9.86,0-16.17-7.09-18.94-21.27-1.18-6.31-1.77-12.63-1.77-18.94,0-29.94,6.31-47.67,18.94-53.17,6.62-2.36,18.23-3.54,34.84-3.54Z"/>
  <path d="M453.37,28.49c.71,11.44,1.06,21.91,1.06,31.4,0,4.76-.08,9.27-.25,13.52-.54,12.83-3.19,22.08-7.95,27.75-4.02,3.95-7.75,5.92-11.19,5.92h-3.54c-7.8,0-13.8-4.57-18-13.72-4.2-9.15-8.77-17.79-13.7-25.93-2.7-4.42-4.68-6.63-5.92-6.63-1.05,0-1.57,1.54-1.57,4.61.51,5.64,1.35,16.58,2.53,32.81,0,5.13-3.54,8.47-10.63,10.03h-1.77c-7.87,0-11.8-7.48-11.8-22.43-.41,0-.61-3.93-.61-11.8l-.76-12.15c0-21.5,4.14-33.91,12.41-37.22,2.26-1.18,4.83-1.97,7.7-2.38,7.9,0,16.76,7.88,26.59,23.65,5.97,11.28,9.77,18.28,11.39,21.02.68,1.15,1.23,1.72,1.67,1.72.57,0,.95-1.08,1.11-3.24.27-3.75.41-8.49.41-14.23,0-4.12-.14-7.8-.41-11.04-.17-1.96-.25-3.78-.25-5.47,0-5.1.76-9.13,2.28-12.1,1.76-3.44,4.86-5.17,9.32-5.17.64,0,1.32.03,2.03.1,5.5.57,8.79,4.24,9.88,10.99Z"/>
  <path d="M512.97,17.25c13.6,0,25.25,9.27,34.94,27.8,1.99,5.44,2.99,10.75,2.99,15.95v2.38c0,13.34-6.52,24.75-19.55,34.23-8.1,5.13-16.76,7.7-25.98,7.7h-4.15c-17.56,0-30.15-7.48-37.78-22.43-1.59-4.29-2.58-9.01-2.99-14.18,0-16.1,5.34-28.7,16.03-37.8,10.68-9.1,22.85-13.65,36.49-13.65ZM515.6,43.02c-2.53-.88-5-1.32-7.39-1.32-4.93,0-9.55,1.82-13.88,5.47-6.41,5.4-9.62,12.37-9.62,20.91v1.77c0,6.55,5.32,10.48,15.95,11.8h5.32c14.18-1.82,21.27-8.51,21.27-20.05,0-9.76-3.88-15.95-11.65-18.58Z"/>
  <path d="M638.71,13.7c10.2,0,16.31,8.88,18.33,26.64,2.13,20.46,3.19,35.89,3.19,46.28,0,7.73-.59,12.66-1.77,14.79-2.23,4.05-5.59,6.08-10.08,6.08-1.05,0-2.16-.12-3.34-.35-5.67-1.05-8.51-4.88-8.51-11.5,0-.57.02-1.16.05-1.77-.68-17.99-1.4-30.4-2.18-37.22-.44-3.51-1.1-5.27-1.97-5.27-.81,0-1.84,1.54-3.09,4.61-2.57,6.38-6.33,12.19-11.29,17.42-3.17,2.36-6.72,3.54-10.63,3.54-7.22,0-14.31-7.09-21.27-21.27-.2-.44-.44-.66-.71-.66-.84,0-1.91,2.36-3.19,7.09-1.69,6.14-2.53,15.43-2.53,27.85v1.57c0,12.46-4.14,19.11-12.41,19.95-.47.07-.95.1-1.42.1-7.36,0-11.04-6.42-11.04-19.24v-.35c.07-13.88,1.26-27.74,3.57-41.6,2.31-13.86,4.79-22.95,7.42-27.27,2.63-4.32,6.45-6.87,11.44-7.65h2.33c6.62.47,12.61,5.65,17.98,15.55,5.37,9.89,8.69,14.84,9.98,14.84l.05-.05c1.28,0,4.32-5.23,9.12-15.7,4.79-10.46,12.12-15.93,21.98-16.41Z"/>
  <path d="M679.07,36.34c6.99.91,10.48,4.88,10.48,11.9,0,.37-.02.76-.05,1.16l-.35,17.07c0,5.4.42,15.94,1.27,31.6-.13,4.69-3.95,7.44-11.44,8.25l-1.21-.05c-2.87-.1-5.79-1.23-8.76-3.39-2.5-2.53-3.75-11.51-3.75-26.94,0-3.41.19-12.19.56-26.33.64-8.84,4.86-13.27,12.66-13.27h.61ZM681.04,3.32h1.32c7.63,0,12.34,3.44,14.13,10.33v4.46c-1.59,9.01-5.87,13.52-12.86,13.52h-3.85c-8.17-1.28-12.25-5.99-12.25-14.13,1.59-9.45,6.09-14.18,13.52-14.18Z"/>
  <path d="M750.42,13.7c14.31,0,22.58,4.93,24.81,14.79v1.17c0,6.45-3.95,10.2-11.85,11.24l-11.19-3.54c-11.41,0-21.45,5.52-30.13,16.56-2.77,4.05-4.15,8.19-4.15,12.41v1.17c0,6.21,3.93,10.75,11.8,13.62,2.97.78,5.74,1.17,8.3,1.17,9.76,0,21.76-3.93,36-11.8,2.16-.41,3.95-.61,5.37-.61,5.17,0,8.71,3.93,10.63,11.8,0,4.46-2.36,8.2-7.09,11.24-16.78,8.68-32.16,13.01-46.13,13.01-17.79,0-30.98-7.88-39.55-23.65-1.99-5.43-2.99-10.75-2.99-15.95v-1.16c0-11.85,5.72-23.48,17.17-34.89,13.03-11.04,26.03-16.56,38.99-16.56Z"/>
  <path d="M832.15,14.92c12.46,0,20.73,4.52,24.81,13.57.78,2.73,1.16,5.1,1.16,7.09-1.38,9.08-5.91,13.62-13.57,13.62-7.09-2.03-10.63-5.38-10.63-10.08h-2.94c-10.26,0-17.35,4.14-21.27,12.41,26.7,3.31,43.57,8.63,50.59,15.95,4.79,5.06,7.19,10.5,7.19,16.3,0,2.63-.49,5.35-1.47,8.15-3.21,8.95-11.19,14.97-23.95,18.08-6.82,1.65-13.81,2.48-20.96,2.48-6.18,0-12.49-.62-18.94-1.87-9.45-1.05-14.18-5.18-14.18-12.41,1.35-7.87,5.08-11.8,11.19-11.8,9.86,1.52,18.23,2.28,25.12,2.28,1.52,0,2.95-.03,4.3-.1,7.49-.41,11.24-2.26,11.24-5.57v-.15c0-2.36-4.38-4.2-13.14-5.52-8.76-1.32-17.83-3.03-27.19-5.14s-14.05-8.69-14.05-19.72,6.7-21.17,20.1-30.49c8.41-4.73,17.27-7.09,26.59-7.09Z"/>
</svg>