<svg width="2307" height="2323" viewBox="0 0 2307 2323" fill="none" xmlns="http://www.w3.org/2000/svg">
<path opacity="0.7" d="M925.79 2299.86L1148.28 1187.81L1140.89 1224.93C1145.27 1225.8 1152.31 1226.61 1160.99 1225.59L1153.56 1162.66L1153.39 1162.26L1153.5 1162.16L1153.47 1162.12L1153.49 1162.13L1153.5 1162.09L1153.42 1162.06L1153.47 1162.04L1153.46 1161.87L1153.57 1161.67L1153.5 1161.63L1153.59 1161.62L1153.63 1161.56L1153.64 1161.62L1153.86 1161.59L1153.63 1161.55L1153.67 1161.48L1153.87 1161.59L1154.04 1161.58L1154.07 1161.63L1154.16 1161.56L1154.26 1161.67L1154.63 1161.51L1159.52 1160.94L1217.28 1172.34L1216.9 1174.25L1154.26 1161.68L1154.51 1161.96L1155.47 1162.5L1154.89 1162.39L1154.93 1162.43L1155.56 1162.56L1209.82 1192.97C1213.9 1185.68 1215.84 1179.15 1216.76 1174.8L1166.03 1164.62L1216.79 1174.64C1216.82 1174.52 1216.84 1174.41 1216.86 1174.29L1216.79 1174.64L2292.29 1386.84L2291.69 1389.85C2267.65 1509.67 2225.25 1624.21 2165.66 1730.28L1154.97 1162.48L1939.93 2015.49C1850.43 2097.85 1749.03 2165.4 1638.54 2216.26L1153.81 1163.28L1288.39 2314.68C1167.57 2328.81 1045.56 2323.81 925.744 2299.83L925.79 2299.86ZM1155.14 1163.95L1181.02 1220.01C1186.87 1217.31 1192.25 1213.72 1196.99 1209.34L1155.14 1163.95ZM1154.36 1162.28L1154.38 1162.32L1154.88 1162.42L1154.78 1162.36L1154.36 1162.28ZM1153.66 1161.73L1153.69 1161.94L1153.86 1161.83L1153.67 1161.72L1153.66 1161.73ZM1154.11 1161.73L1154.13 1161.73L1154.27 1161.69L1154.06 1161.64L1154.11 1161.73ZM1153.9 1161.61L1154.03 1161.69L1154.08 1161.65L1153.9 1161.61ZM585.309 2174.02C478.846 2114.29 382.839 2038.38 299.964 1948.42L1106.3 1205.64C1110.78 1210.36 1116 1214.42 1121.85 1217.73L585.297 2174.02L585.309 2174.02ZM99.0391 1647.13C47.8346 1536.06 14.6649 1418.28 0.424424 1297.04L1089.47 1169.17C1090.27 1175.85 1092.02 1182.24 1094.65 1188.19L99.0415 1647.12L99.0391 1647.13ZM14.9384 935.124L15.3217 933.214C39.2762 813.799 81.4797 699.62 140.748 593.839L1148.98 1158.86L1150.76 1159.22L366.216 308.38C455.627 225.933 556.97 158.278 667.394 107.294L1153.17 1159.68L1153.21 1159.69L1017.43 8.50654C1138.25 -5.74375 1260.28 -0.876117 1380.12 22.9753L1166.13 1098.12C1161.77 1097.24 1154.78 1096.44 1146.16 1097.45L1153.44 1159.73L1153.86 1159.82L1153.69 1160.78L1153.66 1160.81L1153.56 1161.42L1153.61 1161.19L1153.63 1161.42L1153.59 1161.41L1153.64 1161.46L1153.64 1161.56L1153.54 1161.54L1153.56 1161.43L1153.53 1161.43L1153.51 1161.53L1090.14 1148.82L1090.03 1149.37L616.01 1054.29L15.2204 933.718L14.9384 935.124ZM1097.24 1130.04C1093.43 1136.83 1091.47 1142.98 1090.47 1147.31L1148.32 1158.73L1097.24 1130.04ZM1126.11 1103.04C1120.24 1105.74 1114.86 1109.32 1110.11 1113.69L1151.94 1159.14L1126.11 1103.04ZM1153.73 1161.42L1153.85 1161.21L1153.97 1161.39L1153.75 1161.42L1153.73 1161.42ZM1153.61 1161.14L1153.64 1161L1153.67 1161.03L1153.61 1161.14ZM1153.65 1160.99L1153.68 1160.79L1153.74 1160.92L1153.65 1160.99ZM1155.26 1161.22L1156.98 1160.43L1158.86 1160.81L1155.26 1161.22ZM1153.69 1160.77L1153.88 1159.81L1154.31 1159.89L1153.96 1160.52L1153.69 1160.77ZM1217.58 1153.84C1216.77 1147.16 1215.01 1140.77 1212.37 1134.82L2207.52 674.832C2258.83 785.847 2292.12 903.595 2306.49 1024.81L1217.58 1153.82L1217.58 1153.84ZM1200.7 1117.38C1196.23 1112.65 1190.99 1108.6 1185.14 1105.29L1720.71 148.457C1827.24 208.089 1923.32 283.885 2006.27 373.76L1200.7 1117.38Z" fill="url(#paint0_radial_3008_111)" fill-opacity="0.1"/>
<defs>
<radialGradient id="paint0_radial_3008_111" cx="0" cy="0" r="1" gradientUnits="userSpaceOnUse" gradientTransform="translate(1153.51 1161.53) rotate(101.343) scale(1160.88 1160.86)">
<stop stop-color="#FFFAD9"/>
<stop offset="1" stop-color="#FFFAD9" stop-opacity="0"/>
</radialGradient>
</defs>
</svg>
