<?xml version="1.0" encoding="UTF-8"?>
<svg id="Layer_1" xmlns="http://www.w3.org/2000/svg" version="1.1" viewBox="0 0 1439 213">
  <!-- Generator: Adobe Illustrator 29.7.1, SVG Export Plug-In . SVG Version: 2.1.1 Build 8)  -->
  <defs>
    <style>
      .st0 {
        fill: #fff;
      }
    </style>
  </defs>
  <path class="st0" d="M239.8,15.2h.72c9.77,0,14.65,8.37,14.65,25.12v11.18h.72c6.58-.92,13.77-1.38,21.59-1.38h1.44c3.23,0,8.33.22,15.31.66l-2.75-20.21v-2.81c1.35-8.37,5.54-12.56,12.56-12.56h2.09c10.25,0,15.37,10.71,15.37,32.11-.6,43.34-2.25,66.73-4.96,70.18-2.71,3.45-6.42,5.17-11.12,5.17h-1.38c-8.85-1.87-13.28-5.82-13.28-11.84,0-7.26.7-17.72,2.09-31.4-1.99-.96-8.27-1.65-18.84-2.09-4.66,0-11.18.7-19.56,2.09-.44,14.39-.66,24.38-.66,29.96-1.24,10.73-6.12,16.09-14.65,16.09-9.33-1.75-13.99-6.18-13.99-13.28,1.4-34.01,2.09-55.88,2.09-65.6,0-4.7-.46-10.29-1.38-16.75,1.71-9.77,6.36-14.65,13.93-14.65Z"/>
  <path class="st0" d="M389.25,18.67c16.07,0,29.82,10.94,41.26,32.83,2.35,6.42,3.53,12.7,3.53,18.84v2.81c0,15.75-7.69,29.22-23.08,40.43-9.57,6.06-19.79,9.09-30.68,9.09h-4.9c-20.73,0-35.6-8.83-44.61-26.49-1.87-5.06-3.05-10.65-3.53-16.75,0-19.02,6.31-33.9,18.93-44.64,12.62-10.74,26.98-16.12,43.09-16.12ZM392.36,49.11c-2.99-1.04-5.9-1.56-8.73-1.56-5.82,0-11.28,2.15-16.39,6.46-7.58,6.38-11.36,14.61-11.36,24.7v2.09c0,7.74,6.28,12.38,18.84,13.93h6.28c16.75-2.15,25.12-10.05,25.12-23.68,0-11.52-4.59-18.84-13.75-21.95Z"/>
  <path class="st0" d="M486.73,52.82c5.18-10.72,10.35-16.09,15.49-16.09s10.09,5.16,15.07,15.49c1.51,3.87,2.91,7.36,4.19,10.47.88,2.19,1.93,3.29,3.17,3.29,2.91,0,6.76-6.24,11.54-18.72,6.78-17.74,12.46-27.95,17.04-30.62,3.03-.96,5.12-1.44,6.28-1.44h2.75c8.85,1.91,13.28,6.58,13.28,13.99,0,3.11-3.49,10.33-10.47,21.65l-27.21,65.54c-3.55,3.99-7.54,5.98-11.96,5.98-1.12,0-2.25-.12-3.41-.36-8.37,0-15.41-10.5-21.11-31.52l-11.3,27.27c-3.55,3.99-7.54,5.98-11.96,5.98-1.12,0-2.25-.12-3.41-.36-8.97,0-16.41-12.1-22.31-36.3-7.81-21.53-15.49-38.51-23.02-50.95-1.32-2.43-1.97-4.8-1.97-7.12,0-1.75.4-3.49,1.2-5.2,1.79-3.87,6.24-5.8,13.34-5.8h2.09c7.65,0,13.75,5.81,18.3,17.43,4.54,11.62,8.33,21.16,11.36,28.62.92,2.19,1.97,3.29,3.17,3.29,2.59,0,5.88-4.84,9.87-14.53Z"/>
  <path class="st0" d="M699.81,16.58c17.18,0,25.78,5.36,25.78,16.09-1.67,9.77-6.32,14.65-13.93,14.65-7.38-1.4-11.8-2.09-13.28-2.09h-2.75c2.31,23.76,3.47,45.85,3.47,66.26-1.24,8.49-6.08,12.82-14.53,12.98-.16.04-.3.06-.42.06-8.21,0-13-5.04-14.35-15.13-.48-36.52-1.42-57.45-2.81-62.79-11.08,2.35-17.58,3.53-19.5,3.53-8.21,0-12.88-4.9-13.99-14.71,0-9.25,8.85-14.59,26.55-16.03,12.48-1.87,25.73-2.81,39.77-2.81Z"/>
  <path class="st0" d="M780.6,18.67c16.07,0,29.82,10.94,41.26,32.83,2.35,6.42,3.53,12.7,3.53,18.84v2.81c0,15.75-7.7,29.22-23.08,40.43-9.57,6.06-19.79,9.09-30.68,9.09h-4.9c-20.73,0-35.6-8.83-44.61-26.49-1.88-5.06-3.05-10.65-3.53-16.75,0-19.02,6.31-33.9,18.93-44.64,12.62-10.74,26.98-16.12,43.09-16.12ZM783.71,49.11c-2.99-1.04-5.9-1.56-8.73-1.56-5.82,0-11.28,2.15-16.39,6.46-7.58,6.38-11.36,14.61-11.36,24.7v2.09c0,7.74,6.28,12.38,18.84,13.93h6.28c16.75-2.15,25.12-10.05,25.12-23.68,0-11.52-4.58-18.84-13.75-21.95Z"/>
  <path class="st0" d="M924.55,11.02c20.69,0,34.65,8.13,41.86,24.4,1.4,5.1,2.09,8.83,2.09,11.18-.48,5.14-1.42,9.81-2.81,13.99,12.12,7.18,18.18,16.47,18.18,27.87,0,16.03-12.58,28.13-37.74,36.3-9.33,2.47-18.68,3.71-28.05,3.71-6.22,0-12.44-.54-18.66-1.62-5.82,0-10.01-4.64-12.56-13.93-2.35-14.51-3.53-30.34-3.53-47.48v-18.84c0-16.63,8.85-27.79,26.55-33.49,8.61-1.4,13.5-2.09,14.65-2.09ZM911.99,48.69c0,5.94,3.85,8.91,11.54,8.91.76,0,1.55-.02,2.39-.06,9.29-.64,13.93-4.29,13.93-10.94,0-4.07-5.1-6.38-15.31-6.94-8.37,0-12.56,3.01-12.56,9.03ZM922.33,81.43c-6.46,1.93-9.69,5.33-9.69,10.2,0,3.99,4.05,5.98,12.14,5.98,1.83,0,3.89-.12,6.16-.36,12.16-1.08,18.68-4.46,19.56-10.17.08-.64.12-1.26.12-1.85,0-4.46-2.91-6.7-8.73-6.7-6.58,0-13.1.97-19.56,2.9Z"/>
  <path class="st0" d="M1063.89,15.2c9.77,1.56,14.65,6.44,14.65,14.65-2.35,21.13-3.75,36.48-4.19,46.05.44,13.12,1.36,23.82,2.75,32.11v2.09c-1.83,8.85-6.24,13.28-13.22,13.28-5.74,0-10.63-3.27-14.65-9.81-8.97,5.58-17.34,8.37-25.12,8.37h-5.62c-9.45,0-17.58-6.04-24.4-18.12-3.27-8.33-4.9-16.94-4.9-25.83v-4.19c0-31.1,1.59-48.54,4.78-52.33,2.83-3.31,6.48-4.96,10.94-4.96.56,0,1.14.02,1.73.06,8.21,0,13.1,5.12,14.65,15.37-2.79,13.83-4.19,27.09-4.19,39.77v7c.84,9.77,2.23,14.65,4.19,14.65h2.81c10.8,0,18.24-9.31,22.31-27.93.92-3.47,2.07-16.96,3.47-40.49,3.51-6.5,8.17-9.75,13.99-9.75Z"/>
  <path class="st0" d="M1168.19,18.01c9.33,1.12,13.99,5.76,13.99,13.93,0,6.14-2.71,11.1-8.13,14.89-5.42,3.79-15.29,12.56-29.6,26.31,0,31.62-2.49,48.92-7.48,51.91-2.83,1.71-5.7,2.57-8.61,2.57-2.23,0-4.49-.5-6.76-1.5-5.22-2.31-7.83-7.42-7.83-15.31.92-8.53,1.38-17.84,1.38-27.93v-9.75l-27.87-30.02c-2.35-3.35-3.53-6.38-3.53-9.09,1.59-9.29,6.02-13.93,13.28-13.93h2.09c6.54,0,13.2,4.69,19.97,14.08,6.78,9.39,10.8,14.14,12.08,14.26,0,.04.02.06.06.06,1.36,0,6.06-5.06,14.11-15.19,8.17-10.21,15.79-15.31,22.84-15.31Z"/>
</svg>