<svg width="3018" height="3018" viewBox="0 0 3018 3018" fill="none" xmlns="http://www.w3.org/2000/svg">
<path opacity="0.7" d="M1257.29 2765.51L1502.93 1537.74L1494.78 1578.72C1499.61 1579.69 1507.38 1580.59 1516.96 1579.46L1508.77 1509.97L1508.58 1509.53L1508.7 1509.42L1508.66 1509.39L1508.69 1509.39L1508.7 1509.35L1508.61 1509.32L1508.67 1509.29L1508.65 1509.11L1508.78 1508.88L1508.7 1508.84L1508.8 1508.83L1508.84 1508.76L1508.86 1508.83L1509.1 1508.8L1508.85 1508.75L1508.89 1508.67L1509.11 1508.8L1509.29 1508.78L1509.32 1508.84L1509.42 1508.77L1509.54 1508.89L1509.94 1508.7L1515.34 1508.08L1579.11 1520.66L1578.69 1522.77L1509.53 1508.9L1509.82 1509.2L1510.87 1509.8L1510.23 1509.67L1510.28 1509.72L1510.97 1509.86L1570.87 1543.44C1575.38 1535.4 1577.52 1528.18 1578.54 1523.38L1522.53 1512.14L1578.58 1523.2C1578.6 1523.07 1578.63 1522.95 1578.65 1522.82L1578.58 1523.2L2765.99 1757.48L2765.33 1760.81C2738.79 1893.1 2691.97 2019.56 2626.19 2136.66L1510.32 1509.77L2376.97 2451.55C2278.15 2542.48 2166.2 2617.06 2044.22 2673.21L1509.04 1510.66L1657.62 2781.88C1524.23 2797.47 1389.52 2791.95 1257.24 2765.48L1257.29 2765.51ZM1510.51 1511.4L1539.08 1573.3C1545.54 1570.31 1551.48 1566.35 1556.72 1561.52L1510.51 1511.4ZM1509.65 1509.56L1509.67 1509.6L1510.22 1509.71L1510.11 1509.65L1509.65 1509.56ZM1508.87 1508.95L1508.91 1509.19L1509.1 1509.06L1508.89 1508.94L1508.87 1508.95ZM1509.37 1508.95L1509.4 1508.95L1509.55 1508.9L1509.32 1508.86L1509.37 1508.95ZM1509.13 1508.82L1509.28 1508.9L1509.33 1508.86L1509.13 1508.82ZM881.382 2626.58C763.84 2560.63 657.843 2476.83 566.344 2377.51L1456.59 1557.43C1461.53 1562.64 1467.3 1567.12 1473.76 1570.78L881.369 2626.58L881.382 2626.58ZM344.511 2044.86C287.978 1922.23 251.357 1792.19 235.635 1658.34L1438 1517.17C1438.89 1524.54 1440.82 1531.59 1443.73 1538.16L344.514 2044.85L344.511 2044.86ZM251.659 1258.76L252.082 1256.65C278.529 1124.81 325.124 998.753 390.56 881.965L1503.71 1505.79L1505.68 1506.18L639.49 566.802C738.205 475.775 850.094 401.08 972.008 344.791L1508.33 1506.68L1508.37 1506.69L1358.47 235.724C1491.86 219.991 1626.59 225.365 1758.9 251.698L1522.64 1438.72C1517.83 1437.75 1510.11 1436.87 1500.59 1437.98L1508.63 1506.74L1509.09 1506.84L1508.9 1507.9L1508.87 1507.94L1508.76 1508.61L1508.81 1508.35L1508.85 1508.61L1508.79 1508.6L1508.85 1508.65L1508.86 1508.76L1508.74 1508.74L1508.76 1508.62L1508.73 1508.61L1508.71 1508.73L1438.74 1494.7L1438.62 1495.31L915.277 1390.33L251.97 1257.21L251.659 1258.76ZM1446.59 1473.96C1442.38 1481.46 1440.22 1488.25 1439.11 1493.03L1502.98 1505.64L1446.59 1473.96ZM1478.46 1444.15C1471.98 1447.13 1466.04 1451.09 1460.79 1455.91L1506.98 1506.09L1478.46 1444.15ZM1508.96 1508.6L1509.08 1508.38L1509.21 1508.57L1508.97 1508.61L1508.96 1508.6ZM1508.82 1508.3L1508.86 1508.14L1508.89 1508.18L1508.82 1508.3ZM1508.86 1508.13L1508.9 1507.92L1508.96 1508.05L1508.86 1508.13ZM1510.64 1508.39L1512.54 1507.52L1514.61 1507.93L1510.64 1508.39ZM1508.91 1507.89L1509.12 1506.83L1509.6 1506.92L1509.21 1507.62L1508.91 1507.89ZM1579.44 1500.24C1578.55 1492.87 1576.61 1485.81 1573.69 1479.24L2672.4 971.386C2729.05 1093.95 2765.8 1223.95 2781.67 1357.78L1579.45 1500.22L1579.44 1500.24ZM1560.81 1459.98C1555.87 1454.77 1550.09 1450.3 1543.63 1446.64L2134.93 390.238C2252.55 456.074 2358.62 539.758 2450.21 638.985L1560.81 1459.98Z" fill="url(#paint0_radial_3008_121)"/>
<g style="mix-blend-mode:overlay" opacity="0.5">
<path d="M1451.15 2789.12L1507.41 1538.28L1505.58 1580.02C1510.5 1580.25 1518.31 1579.95 1527.61 1577.38L1508.95 1509.95L1508.7 1509.54L1508.8 1509.41L1508.76 1509.39L1508.79 1509.39L1508.79 1509.35L1508.7 1509.33L1508.75 1509.29L1508.71 1509.11L1508.8 1508.87L1508.72 1508.84L1508.82 1508.82L1508.85 1508.74L1508.87 1508.81L1509.1 1508.74L1508.85 1508.73L1508.88 1508.65L1509.12 1508.74L1509.3 1508.69L1509.33 1508.75L1509.42 1508.66L1509.55 1508.76L1509.93 1508.52L1515.17 1507.08L1580.11 1509.83L1580.01 1511.98L1509.55 1508.77L1509.88 1509.03L1511.01 1509.46L1510.36 1509.43L1510.41 1509.47L1511.12 1509.51L1575.43 1533.59C1578.66 1524.96 1579.68 1517.5 1579.96 1512.6L1522.89 1510L1579.97 1512.42C1579.97 1512.29 1579.98 1512.16 1579.98 1512.03L1579.97 1512.42L2789.19 1563.57L2789.04 1566.97C2782.91 1701.75 2755.85 1833.86 2708.62 1959.6L1510.46 1509.52L2510.13 2308.69C2426.27 2413.58 2326.95 2504.3 2214.92 2578.33L1509.33 1510.59L1849.32 2744.47C1719.85 2780.15 1585.86 2795.16 1451.1 2789.1L1451.15 2789.12ZM1510.89 1511.09L1548.54 1567.93C1554.47 1564 1559.74 1559.18 1564.18 1553.61L1510.89 1511.09ZM1509.77 1509.4L1509.79 1509.45L1510.36 1509.47L1510.24 1509.43L1509.77 1509.4ZM1508.91 1508.92L1508.98 1509.15L1509.15 1509L1508.92 1508.9L1508.91 1508.92ZM1509.4 1508.84L1509.42 1508.85L1509.56 1508.77L1509.33 1508.76L1509.4 1508.84ZM1509.14 1508.75L1509.3 1508.81L1509.35 1508.76L1509.14 1508.75ZM1058.5 2708.91C932.302 2661.59 814.804 2594.86 709.277 2510.59L1464.59 1564.78C1470.27 1569.18 1476.65 1572.74 1483.59 1575.37L1058.49 2708.91L1058.5 2708.91ZM439.48 2215.51C364.974 2102.9 309.02 1979.93 273.144 1850.01L1440.11 1527.81C1442.1 1534.96 1445.09 1541.64 1448.96 1547.69L439.481 2215.5L439.48 2215.51ZM228.276 1452.65L228.373 1450.5C234.483 1316.17 261.385 1184.49 308.318 1059.12L1503.32 1506.58L1505.33 1506.67L506.476 709.795C590.216 604.827 689.457 514 801.404 439.843L1508.03 1506.76L1508.07 1506.77L1166.81 273.326C1296.26 237.51 1430.24 222.352 1565.02 228.279L1511.85 1437.41C1506.94 1437.19 1499.18 1437.49 1489.94 1440.03L1508.33 1506.78L1508.8 1506.8L1508.78 1507.88L1508.75 1507.92L1508.75 1508.6L1508.76 1508.34L1508.83 1508.59L1508.77 1508.59L1508.84 1508.63L1508.86 1508.74L1508.74 1508.73L1508.74 1508.61L1508.72 1508.61L1508.71 1508.73L1437.43 1505.49L1437.4 1506.11L904.178 1481.86L228.348 1451.07L228.276 1452.65ZM1442.03 1483.8C1439.01 1491.86 1437.9 1498.89 1437.53 1503.79L1502.58 1506.54L1442.03 1483.8ZM1469 1449.5C1463.05 1453.43 1457.78 1458.24 1453.33 1463.81L1506.6 1506.39L1469 1449.5ZM1508.94 1508.57L1509.03 1508.33L1509.18 1508.5L1508.95 1508.57L1508.94 1508.57ZM1508.76 1508.29L1508.77 1508.13L1508.81 1508.15L1508.76 1508.29ZM1508.77 1508.11L1508.78 1507.9L1508.85 1508.02L1508.77 1508.11ZM1510.57 1508.1L1512.32 1506.95L1514.42 1507.04L1510.57 1508.1ZM1508.78 1507.87L1508.83 1506.79L1509.31 1506.81L1509.04 1507.56L1508.78 1507.87ZM1577.33 1489.59C1575.33 1482.44 1572.34 1475.76 1568.46 1469.71L2577.25 800.826C2651.87 913.362 2707.95 1036.27 2743.96 1166.14L1577.33 1489.57L1577.33 1489.59ZM1552.81 1452.63C1547.13 1448.23 1540.73 1444.69 1533.8 1442.06L1957.73 308.081C2083.98 355.283 2201.54 421.879 2307.14 506.04L1552.81 1452.63Z" fill="url(#paint1_radial_3008_121)"/>
</g>
<defs>
<radialGradient id="paint0_radial_3008_121" cx="0" cy="0" r="1" gradientUnits="userSpaceOnUse" gradientTransform="translate(1508.71 1508.73) rotate(101.343) scale(1281.68 1281.66)">
<stop stop-color="#FFFAD9"/>
<stop offset="1" stop-color="#FFFAD9" stop-opacity="0"/>
</radialGradient>
<radialGradient id="paint1_radial_3008_121" cx="0" cy="0" r="1" gradientUnits="userSpaceOnUse" gradientTransform="translate(1508.71 1508.73) rotate(92.6042) scale(1281.68 1281.66)">
<stop stop-color="#FFFAD9"/>
<stop offset="1" stop-color="#FFFAD9" stop-opacity="0"/>
</radialGradient>
</defs>
</svg>
