<?xml version="1.0" encoding="UTF-8"?>
<svg id="Layer_1" xmlns="http://www.w3.org/2000/svg" version="1.1" viewBox="0 0 550 237">
  <!-- Generator: Adobe Illustrator 29.7.1, SVG Export Plug-In . SVG Version: 2.1.1 Build 8)  -->
  <path d="M72.58,58.18h1.98c7.52,0,15.25,10.34,23.19,31.01,7.94,20.68,16.1,38.78,24.49,54.32v5.33c0,5.63-4.42,9.6-13.27,11.91-7.94,0-13-3.42-15.19-10.26-2.19-6.69-9.11-10.04-20.75-10.04h-.74c-12.13.15-19.84,4.56-23.1,13.24-3.27,8.67-7.82,13.01-13.64,13.01h-3.29c-7.52-2.19-11.28-5.95-11.28-11.28v-3.29c0-2.23,7.28-18.99,21.83-50.29,10.92-24,17.54-37,19.84-39.01,3.4-3.1,6.71-4.65,9.92-4.65ZM68.95,105.8c-1.21,2.91-1.81,5.1-1.81,6.58,0,1.59.68,2.38,2.04,2.38.23,0,.45-.02.68-.06,3.29-.49,6.03-.74,8.22-.74.94,0,1.42-.57,1.42-1.7,0-1.47-.79-3.87-2.38-7.2-1.32-2.83-2.65-4.25-3.97-4.25-1.44,0-2.83,1.66-4.2,4.99Z"/>
  <path d="M165.73,56.19c19.62,0,32.85,7.71,39.69,23.13,1.32,4.84,1.98,8.37,1.98,10.6-.45,4.88-1.34,9.3-2.66,13.27,11.49,6.8,17.24,15.61,17.24,26.42,0,15.2-11.93,26.67-35.78,34.42-8.84,2.34-17.71,3.51-26.59,3.51-5.9,0-11.79-.51-17.69-1.53-5.52,0-9.49-4.4-11.91-13.21-2.23-13.76-3.35-28.76-3.35-45.02v-17.86c0-15.76,8.39-26.35,25.17-31.75,8.16-1.32,12.79-1.98,13.89-1.98ZM153.83,91.91c0,5.63,3.65,8.45,10.94,8.45.72,0,1.47-.02,2.27-.06,8.81-.6,13.21-4.06,13.21-10.38,0-3.86-4.84-6.05-14.51-6.58-7.94,0-11.91,2.85-11.91,8.56ZM163.63,122.95c-6.12,1.83-9.19,5.06-9.19,9.67,0,3.78,3.84,5.67,11.51,5.67,1.74,0,3.69-.11,5.84-.34,11.53-1.02,17.71-4.23,18.54-9.64.08-.6.11-1.19.11-1.76,0-4.23-2.76-6.35-8.28-6.35-6.24,0-12.42.92-18.54,2.75Z"/>
  <path d="M285.82,63.45c15.23,0,28.27,10.38,39.12,31.13,2.23,6.09,3.35,12.04,3.35,17.86v2.66c0,14.93-7.29,27.71-21.88,38.33-9.07,5.75-18.77,8.62-29.09,8.62h-4.65c-19.66,0-33.75-8.37-42.3-25.12-1.78-4.8-2.89-10.09-3.35-15.88,0-18.03,5.98-32.14,17.94-42.32,11.96-10.19,25.58-15.28,40.85-15.28ZM288.77,92.31c-2.84-.98-5.6-1.47-8.28-1.47-5.52,0-10.7,2.04-15.54,6.12-7.18,6.05-10.77,13.85-10.77,23.42v1.98c0,7.33,5.95,11.74,17.86,13.21h5.95c15.88-2.04,23.81-9.53,23.81-22.45,0-10.92-4.35-17.86-13.04-20.81Z"/>
  <path d="M405.34,60.16c9.26,1.47,13.89,6.1,13.89,13.89-2.23,20.03-3.55,34.59-3.97,43.66.42,12.44,1.29,22.58,2.61,30.45v1.98c-1.74,8.39-5.92,12.59-12.53,12.59-5.44,0-10.07-3.1-13.89-9.3-8.51,5.29-16.44,7.94-23.81,7.94h-5.33c-8.96,0-16.67-5.73-23.13-17.18-3.1-7.9-4.65-16.06-4.65-24.49v-3.97c0-29.48,1.51-46.02,4.54-49.61,2.68-3.14,6.14-4.71,10.38-4.71.53,0,1.08.02,1.64.06,7.79,0,12.42,4.86,13.89,14.57-2.65,13.12-3.97,25.68-3.97,37.7v6.63c.79,9.26,2.12,13.89,3.97,13.89h2.66c10.24,0,17.29-8.83,21.15-26.48.87-3.29,1.96-16.08,3.29-38.38,3.33-6.16,7.75-9.24,13.27-9.24Z"/>
  <path d="M487.04,61.46c16.29,0,24.44,5.08,24.44,15.25-1.59,9.26-5.99,13.89-13.21,13.89-6.99-1.32-11.19-1.98-12.59-1.98h-2.61c2.19,22.53,3.29,43.47,3.29,62.82-1.17,8.05-5.77,12.15-13.78,12.3-.15.04-.28.06-.4.06-7.79,0-12.32-4.78-13.61-14.34-.46-34.62-1.34-54.47-2.67-59.53-10.51,2.23-16.67,3.35-18.48,3.35-7.79,0-12.21-4.65-13.27-13.95,0-8.77,8.39-13.83,25.17-15.2,11.83-1.78,24.4-2.66,37.7-2.66Z"/>
</svg>