<?xml version="1.0" encoding="UTF-8"?>
<svg id="Layer_1" xmlns="http://www.w3.org/2000/svg" version="1.1" viewBox="0 0 99 61">
  <!-- Generator: Adobe Illustrator 29.7.1, SVG Export Plug-In . SVG Version: 2.1.1 Build 8)  -->
  <defs>
    <style>
      .st0 {
        fill: #fff;
      }
    </style>
  </defs>
  <path class="st0" d="M11.56,18.72h1.31c3.01,0,4.87.25,5.58.74.75.53,1.13,1.25,1.13,2.18v.59c0,1.28-.92,2.1-2.76,2.48h-.15c-1.65,0-3.55-.05-5.69-.14-2.24.16-3.43.44-3.59.84-.1.24-.15.51-.15.81,0,.21.02.43.07.68.11.58,2.45.88,7.02.88,1.52,0,2.44.98,2.78,2.93-.33,1.94-1.3,2.91-2.91,2.91h-5.84v.15c.58,3.17.88,5.31.88,6.42-.52,2.04-1.54,3.06-3.06,3.06h-.15c-1.23,0-2.15-.73-2.76-2.19,0-1.03-.54-5.21-1.61-12.55v-1.75c0-3.55,1.31-5.89,3.94-7.02,1.65-.68,3.65-1.01,5.99-1.01Z"/>
  <path class="st0" d="M24.16,20.03c1.63,0,2.6,1.02,2.93,3.06-.68,5.32-1.03,9.41-1.03,12.26.1.69.15,1.08.15,1.16.26,0,2.16-.48,5.69-1.45h.29c1.24,0,2.12.68,2.63,2.04.1.38.15.76.15,1.16,0,2.01-3.02,3.42-9.06,4.24h-.29c-2.48,0-4.18-1.27-5.1-3.8-.2-.97-.3-1.84-.3-2.63v-.14c.12-8.82.5-13.68,1.16-14.6.63-.88,1.51-1.31,2.65-1.31h.13Z"/>
  <path class="st0" d="M48.24,20.17c3.36,0,6.24,2.29,8.63,6.87.49,1.34.74,2.66.74,3.94v.59c0,3.29-1.61,6.11-4.83,8.46-2,1.27-4.14,1.9-6.42,1.9h-1.03c-4.34,0-7.45-1.85-9.33-5.54-.39-1.06-.64-2.23-.74-3.5,0-3.98,1.32-7.09,3.96-9.34,2.64-2.25,5.64-3.37,9.01-3.37ZM48.89,26.54c-.63-.22-1.23-.33-1.83-.33-1.22,0-2.36.45-3.43,1.35-1.58,1.33-2.38,3.06-2.38,5.17v.44c0,1.62,1.31,2.59,3.94,2.91h1.31c3.5-.45,5.26-2.1,5.26-4.95,0-2.41-.96-3.94-2.88-4.59Z"/>
  <path class="st0" d="M67.75,19.01c4.4,0,7.46,2.14,9.2,6.43.2.73.3,1.41.3,2.04,0,2.95-1.61,5.43-4.82,7.44,2.29,1.28,3.55,2.2,3.79,2.78.19.73.29,1.16.29,1.31,0,1.52-.97,2.44-2.91,2.77-1.67,0-4.25-1.65-7.73-4.95l-.3-.15c.1.97.15,1.7.15,2.19,0,2.41-1.07,3.77-3.22,4.09-1.64,0-2.61-.98-2.91-2.93,0-.46.05-.94.15-1.45-.29-3.04-.54-6.6-.74-10.66,0-4.41,1.31-7.09,3.94-8.03,1.75-.58,3.36-.88,4.82-.88ZM65.03,27.55s-.01.06-.01.09c0,1.64.82,2.46,2.45,2.46s2.69-.75,3.13-2.26c.07-.26.11-.5.11-.73,0-1.06-.85-1.67-2.55-1.83-.21-.02-.41-.03-.6-.03-1.66,0-2.5.76-2.53,2.29Z"/>
  <path class="st0" d="M81.38,19.73c2.47.05,3.7,1.11,3.7,3.19,0,.23-.01.47-.04.73-.07.62-.11,1.14-.11,1.56,0,1.03.21,1.54.61,1.54.13,0,.29-.06.48-.18.96-.59,2.32-2,4.08-4.22,1.75-2.21,3.43-3.32,5.03-3.32h.01c1.6,0,2.5.97,2.7,2.88v.16c0,1.94-3.3,5.35-9.9,10.21,1.83,1.58,3.82,2.92,5.97,4,2.14,1.08,3.27,2.38,3.36,3.88-.33,1.94-1.4,2.91-3.2,2.91-1.03,0-4.38-2.09-10.07-6.27-.23,2.44-.57,4.14-1.03,5.08-.39.81-1.1,1.21-2.11,1.21-.17,0-.34,0-.51-.02-1.52,0-2.44-.97-2.78-2.91.78-5.23,1.18-9.61,1.18-13.14v-3.94c0-1.91.88-3.03,2.63-3.36Z"/>
</svg>